<svg xmlns="http://www.w3.org/2000/svg" viewBox="0 0 366 44">
  <path fill="#17191a" d="M62.75.79H74l11 29.14L96.16.79h11.11v41.64h-7V7.88h-.12L87.61 42.43h-5.14L69.92 7.88h-.12v34.55h-7zm66.63 37.73h-.18a8.62 8.62 0 01-3.88 3.48 12.17 12.17 0 01-5.14 1.08 13 13 0 01-3.77-.54 11.07 11.07 0 01-3.28-1.54 8.15 8.15 0 01-2.33-2.65 7.42 7.42 0 01-.9-3.72 8.74 8.74 0 01.84-3.91A7.44 7.44 0 01113 28a10.65 10.65 0 013.17-1.74 19.94 19.94 0 013.76-1 29.45 29.45 0 013.94-.42c1.32-.06 2.57-.06 3.77-.06h1.73V24a4.66 4.66 0 00-1.79-4 7.48 7.48 0 00-4.6-1.32 10.34 10.34 0 00-4.13.78 10.68 10.68 0 00-3.34 2.16L111.75 18a13.93 13.93 0 015.44-3.48 19.68 19.68 0 016.46-1.08 17.31 17.31 0 015 .66 10.17 10.17 0 013.4 1.74 7.39 7.39 0 012.09 2.46 14.88 14.88 0 011.1 2.7 11.16 11.16 0 01.36 2.7c.06.9.06 1.68.06 2.35v16.26h-6.34zm-.38-8.71h-1.43c-1 0-2.09.06-3.29.12a15.48 15.48 0 00-3.4.54 7 7 0 00-2.69 1.32A2.92 2.92 0 00117 34.2a3 3 0 00.42 1.68 4.12 4.12 0 001.15 1.12 4.94 4.94 0 001.55.66 8.93 8.93 0 001.73.18 7.53 7.53 0 005.38-1.74 6.39 6.39 0 001.77-4.73zm9.8-15.62h7v4.45h.12a9 9 0 013.34-3.85 9.18 9.18 0 015-1.32 9 9 0 011.26.12l1.25.3v6.79a8.88 8.88 0 00-1.73-.36c-.6-.06-1.14-.12-1.67-.12a7.7 7.7 0 00-3.95.9 7.13 7.13 0 00-2.27 2.1 6.57 6.57 0 00-1.15 2.35 8.23 8.23 0 00-.24 1.74v15.08h-7zM159.56.79h7v25.12l10.82-11.72h9l-12 12.8 12.79 15.38h-9.32L166.67 28h-.12v14.37h-7zm31.37 30a7.25 7.25 0 002.45 4.93 7.49 7.49 0 005.08 1.74 8.5 8.5 0 004.43-1.08 12.11 12.11 0 003.1-2.7l5 3.84a13.71 13.71 0 01-5.5 4.33 16.45 16.45 0 01-6.39 1.32 16.8 16.8 0 01-6-1.08 14.27 14.27 0 01-4.84-3 13.59 13.59 0 01-3.22-4.68 15.22 15.22 0 01-1.2-6.07 15.22 15.22 0 011.2-6.07 13.84 13.84 0 018.06-7.69 16.56 16.56 0 016-1.08 14.32 14.32 0 015.38 1 11.27 11.27 0 014.12 2.94 14.43 14.43 0 012.69 4.81 20.06 20.06 0 011 6.55v1.92zm14.41-5.28a6.69 6.69 0 00-1.92-4.93 7.19 7.19 0 00-5.2-1.8 7 7 0 00-5 1.8 8.1 8.1 0 00-2.27 4.86h14.41zm7.17-5.29v-6h5.79V6h7v8.17h7.7v6h-7.7v12.34a6.21 6.21 0 00.77 3.37c.54.84 1.56 1.26 3.11 1.26a12.7 12.7 0 002-.18 4.12 4.12 0 001.73-.66v6a8.32 8.32 0 01-2.68.72 25.37 25.37 0 01-2.81.18 14.21 14.21 0 01-4.6-.6 5.9 5.9 0 01-2.82-1.91 7.13 7.13 0 01-1.38-3.13 23.25 23.25 0 01-.36-4.32v-13zM236 .79h11.24l11 29.14L269.46.79h11.11v41.64h-7V7.88h-.12l-12.54 34.55h-5.14L243.22 7.88h-.12v34.55h-7zm73 41.64h-6.7v-4.51h-.12a9.79 9.79 0 01-3 3.67 9.15 9.15 0 01-5.56 1.56 11.52 11.52 0 01-4.78-.9 8.29 8.29 0 01-3.17-2.46 9.41 9.41 0 01-1.73-3.55 15.69 15.69 0 01-.54-4.15v-17.9h7v14.3c0 .78.06 1.68.12 2.64a9.91 9.91 0 00.6 2.71 5.46 5.46 0 001.49 2.1 4.56 4.56 0 002.87.84 6.07 6.07 0 002.93-.6 6.31 6.31 0 002-1.56 6.24 6.24 0 001.14-2.29 9.79 9.79 0 00.36-2.7V14.19h7zM328.32 22a6.39 6.39 0 00-5.5-2.88 5.73 5.73 0 00-2.75.72 2.41 2.41 0 00-1.31 2.28 1.91 1.91 0 001.13 1.88 16.87 16.87 0 002.81 1c1.14.3 2.33.55 3.65.85a14.61 14.61 0 013.65 1.32 7.57 7.57 0 012.81 2.52 7.69 7.69 0 011.13 4.31 7.88 7.88 0 01-1.08 4.26 8.27 8.27 0 01-2.81 2.77 11.63 11.63 0 01-3.88 1.5 21.06 21.06 0 01-4.3.48 17.92 17.92 0 01-6-1 10.72 10.72 0 01-4.9-3.43l4.66-4.38a14 14 0 002.87 2.52 6.76 6.76 0 003.76 1 7.33 7.33 0 001.56-.18 4.17 4.17 0 001.49-.6 3.76 3.76 0 001.14-1 2.46 2.46 0 00.42-1.44 2.37 2.37 0 00-1.14-2.17 9.44 9.44 0 00-2.81-1.14c-1.13-.3-2.33-.54-3.64-.84a12.53 12.53 0 01-3.65-1.26 7.26 7.26 0 01-2.81-2.4 7.16 7.16 0 01-1.13-4.21 8.15 8.15 0 011-4.08 8.33 8.33 0 012.57-2.83 10.6 10.6 0 013.56-1.57 16.19 16.19 0 014.12-.54 16.43 16.43 0 015.56 1 9 9 0 014.42 3.3zm13.92 8.77a7.25 7.25 0 002.45 4.93 7.49 7.49 0 005.08 1.74 8.5 8.5 0 004.43-1.08 12.11 12.11 0 003.1-2.7l5 3.84a13.71 13.71 0 01-5.5 4.33 16.45 16.45 0 01-6.39 1.32 16.8 16.8 0 01-6-1.08 13.92 13.92 0 01-8.06-7.69 15.22 15.22 0 01-1.2-6.07 15.22 15.22 0 011.2-6.07 13.84 13.84 0 018.06-7.69 16.56 16.56 0 016-1.08 14.32 14.32 0 015.38 1 10.8 10.8 0 014.12 2.94 13.86 13.86 0 012.69 4.81 20.06 20.06 0 011 6.55v1.92zm14.41-5.28a6.69 6.69 0 00-1.92-4.93 7.21 7.21 0 00-5.2-1.8 7 7 0 00-5 1.8 8.1 8.1 0 00-2.27 4.86h14.41z" class="logo-text"></path>
  <g fill="#519ad3" class="logo-stars">
    <path d="M35.5 23.44l9.26-3-9.26-3-3-9.07-3.1 9.07-9.27 3 9.27 3 3.1 9.07zM12.2 36.18l7.11-2.34-7.11-2.35-2.4-7-2.39 7-7.17 2.35 7.17 2.34 2.39 7zM11.6 9.92l5.5-1.8-5.5-1.74L9.8 1 8 6.38 2.51 8.12 8 9.92l1.8 5.35z"></path>
  </g>
</svg>